<svg xmlns="http://www.w3.org/2000/svg" xmlns:xlink="http://www.w3.org/1999/xlink" width="800" zoomAndPan="magnify" viewBox="0 0 600 449.999984" height="600" preserveAspectRatio="xMidYMid meet" version="1.0"><path fill="#000000" d="M 299.96875 28.050781 C 296.757812 28.050781 293.546875 28.128906 290.339844 28.285156 C 287.132812 28.445312 283.929688 28.679688 280.734375 28.996094 C 277.539062 29.308594 274.351562 29.703125 271.175781 30.175781 C 268 30.648438 264.835938 31.195312 261.6875 31.824219 C 258.539062 32.449219 255.40625 33.152344 252.292969 33.933594 C 249.175781 34.714844 246.082031 35.570312 243.007812 36.503906 C 239.9375 37.4375 236.886719 38.445312 233.863281 39.527344 C 230.839844 40.609375 227.84375 41.765625 224.878906 42.996094 C 221.910156 44.226562 218.976562 45.527344 216.074219 46.902344 C 213.171875 48.277344 210.304688 49.71875 207.472656 51.234375 C 204.640625 52.75 201.847656 54.332031 199.09375 55.984375 C 196.335938 57.636719 193.625 59.355469 190.957031 61.140625 C 188.285156 62.925781 185.660156 64.777344 183.082031 66.691406 C 180.503906 68.605469 177.972656 70.582031 175.488281 72.621094 C 173.007812 74.65625 170.574219 76.757812 168.195312 78.914062 C 165.816406 81.070312 163.492188 83.289062 161.222656 85.558594 C 158.949219 87.832031 156.738281 90.160156 154.582031 92.539062 C 152.421875 94.921875 150.328125 97.351562 148.289062 99.835938 C 146.253906 102.320312 144.277344 104.851562 142.363281 107.433594 C 140.453125 110.015625 138.601562 112.640625 136.820312 115.3125 C 135.035156 117.984375 133.316406 120.699219 131.667969 123.457031 C 130.015625 126.210938 128.433594 129.007812 126.917969 131.839844 C 125.40625 134.675781 123.960938 137.542969 122.589844 140.449219 C 121.214844 143.355469 119.914062 146.292969 118.6875 149.261719 C 117.457031 152.230469 116.300781 155.226562 115.21875 158.25 C 114.136719 161.277344 113.132812 164.328125 112.199219 167.402344 C 111.265625 170.476562 110.410156 173.574219 109.628906 176.691406 C 108.851562 179.808594 108.148438 182.941406 107.519531 186.09375 C 106.894531 189.246094 106.34375 192.410156 105.875 195.589844 C 105.402344 198.769531 105.011719 201.957031 104.695312 205.15625 C 104.378906 208.351562 104.144531 211.554688 103.988281 214.765625 C 103.828125 217.976562 103.75 221.1875 103.75 224.398438 C 103.75 227.613281 103.828125 230.824219 103.988281 234.035156 C 104.144531 237.242188 104.378906 240.449219 104.695312 243.644531 C 105.011719 246.84375 105.402344 250.03125 105.875 253.210938 C 106.34375 256.390625 106.894531 259.554688 107.519531 262.707031 C 108.148438 265.859375 108.851562 268.992188 109.628906 272.109375 C 110.410156 275.226562 111.265625 278.324219 112.199219 281.398438 C 113.132812 284.472656 114.136719 287.523438 115.21875 290.546875 C 116.300781 293.574219 117.457031 296.570312 118.6875 299.539062 C 119.914062 302.507812 121.214844 305.445312 122.589844 308.351562 C 123.960938 311.253906 125.40625 314.125 126.917969 316.957031 C 128.433594 319.792969 130.015625 322.585938 131.667969 325.34375 C 133.316406 328.101562 135.035156 330.8125 136.820312 333.484375 C 138.601562 336.15625 140.453125 338.785156 142.363281 341.367188 C 144.277344 343.945312 146.253906 346.480469 148.289062 348.964844 C 150.328125 351.445312 152.421875 353.878906 154.582031 356.261719 C 156.738281 358.640625 158.949219 360.96875 161.222656 363.242188 C 163.492188 365.511719 165.816406 367.726562 168.195312 369.886719 C 170.574219 372.042969 173.007812 374.140625 175.488281 376.179688 C 177.972656 378.21875 180.503906 380.195312 183.082031 382.109375 C 185.660156 384.023438 188.285156 385.875 190.957031 387.660156 C 193.625 389.445312 196.335938 391.164062 199.09375 392.816406 C 201.847656 394.46875 204.640625 396.050781 207.472656 397.566406 C 210.304688 399.078125 213.171875 400.523438 216.074219 401.898438 C 218.976562 403.273438 221.910156 404.574219 224.878906 405.804688 C 227.84375 407.035156 230.839844 408.191406 233.863281 409.273438 C 236.886719 410.355469 239.9375 411.363281 243.007812 412.296875 C 246.082031 413.226562 249.175781 414.085938 252.292969 414.867188 C 255.40625 415.644531 258.539062 416.351562 261.6875 416.976562 C 264.835938 417.605469 268 418.152344 271.175781 418.625 C 274.351562 419.097656 277.539062 419.488281 280.734375 419.804688 C 283.929688 420.121094 287.132812 420.355469 290.339844 420.511719 C 293.546875 420.671875 296.757812 420.75 299.96875 420.75 C 303.179688 420.75 306.386719 420.671875 309.597656 420.511719 C 312.804688 420.355469 316.003906 420.121094 319.199219 419.804688 C 322.398438 419.488281 325.582031 419.097656 328.757812 418.625 C 331.9375 418.152344 335.097656 417.605469 338.25 416.976562 C 341.398438 416.351562 344.53125 415.644531 347.644531 414.867188 C 350.761719 414.085938 353.855469 413.226562 356.925781 412.296875 C 360 411.363281 363.046875 410.355469 366.070312 409.273438 C 369.09375 408.191406 372.089844 407.035156 375.058594 405.804688 C 378.023438 404.574219 380.957031 403.273438 383.863281 401.898438 C 386.765625 400.523438 389.632812 399.078125 392.464844 397.566406 C 395.296875 396.050781 398.089844 394.46875 400.84375 392.816406 C 403.597656 391.164062 406.3125 389.445312 408.980469 387.660156 C 411.652344 385.875 414.277344 384.023438 416.855469 382.109375 C 419.433594 380.195312 421.964844 378.21875 424.445312 376.179688 C 426.929688 374.140625 429.359375 372.042969 431.738281 369.886719 C 434.121094 367.726562 436.445312 365.511719 438.714844 363.242188 C 440.984375 360.96875 443.199219 358.640625 445.355469 356.261719 C 447.511719 353.878906 449.609375 351.445312 451.644531 348.964844 C 453.683594 346.480469 455.660156 343.945312 457.570312 341.367188 C 459.484375 338.785156 461.332031 336.15625 463.117188 333.484375 C 464.902344 330.8125 466.617188 328.101562 468.269531 325.34375 C 469.921875 322.585938 471.503906 319.792969 473.015625 316.957031 C 474.53125 314.125 475.972656 311.253906 477.347656 308.351562 C 478.71875 305.445312 480.019531 302.507812 481.25 299.539062 C 482.476562 296.570312 483.632812 293.574219 484.714844 290.546875 C 485.796875 287.523438 486.804688 284.472656 487.738281 281.398438 C 488.667969 278.324219 489.523438 275.226562 490.304688 272.109375 C 491.085938 268.992188 491.789062 265.859375 492.414062 262.707031 C 493.042969 259.554688 493.589844 256.390625 494.0625 253.210938 C 494.53125 250.03125 494.925781 246.84375 495.242188 243.644531 C 495.554688 240.449219 495.792969 237.242188 495.949219 234.035156 C 496.105469 230.824219 496.1875 227.613281 496.1875 224.398438 C 496.183594 221.1875 496.101562 217.976562 495.941406 214.769531 C 495.777344 211.558594 495.539062 208.359375 495.222656 205.160156 C 494.902344 201.964844 494.507812 198.777344 494.035156 195.601562 C 493.5625 192.421875 493.007812 189.257812 492.378906 186.109375 C 491.75 182.957031 491.046875 179.824219 490.265625 176.710938 C 489.480469 173.59375 488.625 170.5 487.691406 167.425781 C 486.753906 164.351562 485.746094 161.304688 484.664062 158.28125 C 483.582031 155.253906 482.421875 152.261719 481.195312 149.292969 C 479.964844 146.324219 478.660156 143.390625 477.289062 140.488281 C 475.914062 137.582031 474.46875 134.714844 472.953125 131.882812 C 471.441406 129.050781 469.855469 126.257812 468.207031 123.5 C 466.554688 120.746094 464.835938 118.035156 463.050781 115.363281 C 461.269531 112.691406 459.417969 110.066406 457.507812 107.488281 C 455.59375 104.90625 453.617188 102.375 451.582031 99.894531 C 449.546875 97.410156 447.449219 94.980469 445.292969 92.597656 C 443.136719 90.21875 440.921875 87.894531 438.652344 85.621094 C 436.382812 83.347656 434.058594 81.136719 431.679688 78.976562 C 429.300781 76.820312 426.871094 74.722656 424.390625 72.683594 C 421.910156 70.644531 419.378906 68.667969 416.800781 66.753906 C 414.222656 64.839844 411.601562 62.992188 408.929688 61.207031 C 406.261719 59.421875 403.550781 57.699219 400.796875 56.046875 C 398.046875 54.394531 395.253906 52.8125 392.421875 51.296875 C 389.59375 49.78125 386.726562 48.335938 383.824219 46.960938 C 380.921875 45.585938 377.988281 44.285156 375.023438 43.050781 C 372.058594 41.820312 369.066406 40.664062 366.042969 39.578125 C 363.023438 38.496094 359.976562 37.488281 356.902344 36.550781 C 353.832031 35.617188 350.738281 34.757812 347.625 33.976562 C 344.511719 33.191406 341.382812 32.488281 338.234375 31.859375 C 335.085938 31.226562 331.925781 30.675781 328.75 30.203125 C 325.574219 29.726562 322.390625 29.332031 319.195312 29.015625 C 316 28.695312 312.800781 28.457031 309.59375 28.296875 C 306.386719 28.136719 303.179688 28.054688 299.96875 28.050781 Z M 299.96875 392.699219 C 297.214844 392.699219 294.464844 392.632812 291.714844 392.496094 C 288.964844 392.363281 286.222656 392.160156 283.484375 391.890625 C 280.742188 391.621094 278.011719 391.28125 275.289062 390.878906 C 272.566406 390.472656 269.855469 390.003906 267.15625 389.464844 C 264.457031 388.929688 261.773438 388.324219 259.101562 387.65625 C 256.433594 386.988281 253.78125 386.253906 251.144531 385.453125 C 248.511719 384.652344 245.898438 383.789062 243.308594 382.863281 C 240.714844 381.933594 238.148438 380.941406 235.605469 379.890625 C 233.0625 378.835938 230.546875 377.71875 228.058594 376.542969 C 225.570312 375.363281 223.113281 374.125 220.683594 372.828125 C 218.257812 371.527344 215.863281 370.171875 213.503906 368.753906 C 211.140625 367.339844 208.816406 365.867188 206.527344 364.335938 C 204.238281 362.804688 201.988281 361.21875 199.78125 359.578125 C 197.570312 357.9375 195.398438 356.246094 193.273438 354.496094 C 191.144531 352.75 189.058594 350.953125 187.019531 349.101562 C 184.980469 347.253906 182.988281 345.355469 181.042969 343.40625 C 179.097656 341.457031 177.199219 339.464844 175.351562 337.421875 C 173.5 335.382812 171.703125 333.296875 169.957031 331.167969 C 168.210938 329.039062 166.519531 326.867188 164.878906 324.65625 C 163.238281 322.445312 161.65625 320.191406 160.125 317.902344 C 158.597656 315.613281 157.125 313.285156 155.710938 310.921875 C 154.292969 308.5625 152.9375 306.164062 151.640625 303.734375 C 150.34375 301.308594 149.105469 298.847656 147.929688 296.359375 C 146.753906 293.867188 145.636719 291.351562 144.582031 288.804688 C 143.53125 286.261719 142.539062 283.691406 141.613281 281.097656 C 140.6875 278.503906 139.824219 275.890625 139.023438 273.253906 C 138.222656 270.617188 137.492188 267.964844 136.820312 265.292969 C 136.152344 262.621094 135.550781 259.933594 135.011719 257.234375 C 134.476562 254.53125 134.003906 251.820312 133.601562 249.09375 C 133.199219 246.371094 132.859375 243.636719 132.589844 240.894531 C 132.320312 238.15625 132.117188 235.410156 131.984375 232.65625 C 131.847656 229.90625 131.78125 227.15625 131.78125 224.398438 C 131.78125 221.644531 131.847656 218.894531 131.984375 216.140625 C 132.117188 213.390625 132.320312 210.644531 132.589844 207.902344 C 132.859375 205.164062 133.199219 202.429688 133.601562 199.707031 C 134.003906 196.980469 134.476562 194.269531 135.011719 191.566406 C 135.550781 188.863281 136.152344 186.179688 136.820312 183.507812 C 137.492188 180.835938 138.222656 178.179688 139.023438 175.546875 C 139.824219 172.910156 140.6875 170.292969 141.613281 167.703125 C 142.539062 165.109375 143.53125 162.539062 144.582031 159.996094 C 145.636719 157.449219 146.753906 154.933594 147.929688 152.441406 C 149.105469 149.953125 150.34375 147.492188 151.640625 145.0625 C 152.9375 142.636719 154.292969 140.238281 155.710938 137.875 C 157.125 135.515625 158.597656 133.1875 160.125 130.898438 C 161.65625 128.605469 163.238281 126.355469 164.878906 124.144531 C 166.519531 121.929688 168.210938 119.761719 169.957031 117.632812 C 171.703125 115.503906 173.5 113.417969 175.351562 111.375 C 177.199219 109.335938 179.097656 107.339844 181.042969 105.394531 C 182.988281 103.445312 184.980469 101.546875 187.019531 99.699219 C 189.058594 97.847656 191.144531 96.050781 193.273438 94.300781 C 195.398438 92.554688 197.570312 90.859375 199.78125 89.21875 C 201.992188 87.578125 204.238281 85.992188 206.527344 84.464844 C 208.816406 82.933594 211.140625 81.460938 213.503906 80.042969 C 215.863281 78.628906 218.257812 77.269531 220.683594 75.972656 C 223.113281 74.675781 225.570312 73.4375 228.058594 72.257812 C 230.546875 71.082031 233.0625 69.964844 235.605469 68.910156 C 238.148438 67.855469 240.714844 66.867188 243.308594 65.9375 C 245.898438 65.011719 248.511719 64.148438 251.144531 63.347656 C 253.78125 62.546875 256.433594 61.8125 259.101562 61.144531 C 261.773438 60.472656 264.457031 59.871094 267.15625 59.332031 C 269.855469 58.796875 272.566406 58.324219 275.289062 57.921875 C 278.011719 57.515625 280.742188 57.179688 283.484375 56.910156 C 286.222656 56.640625 288.964844 56.4375 291.714844 56.300781 C 294.464844 56.167969 297.214844 56.101562 299.96875 56.101562 C 302.71875 56.101562 305.472656 56.167969 308.21875 56.300781 C 310.96875 56.4375 313.714844 56.640625 316.453125 56.910156 C 319.191406 57.179688 321.921875 57.515625 324.644531 57.921875 C 327.367188 58.324219 330.078125 58.796875 332.78125 59.332031 C 335.480469 59.871094 338.164062 60.472656 340.835938 61.144531 C 343.503906 61.8125 346.15625 62.546875 348.789062 63.347656 C 351.425781 64.148438 354.035156 65.011719 356.628906 65.9375 C 359.21875 66.867188 361.789062 67.855469 364.332031 68.910156 C 366.875 69.964844 369.390625 71.082031 371.878906 72.257812 C 374.367188 73.4375 376.824219 74.675781 379.25 75.972656 C 381.679688 77.269531 384.074219 78.628906 386.433594 80.042969 C 388.792969 81.460938 391.117188 82.933594 393.40625 84.464844 C 395.695312 85.992188 397.945312 87.578125 400.15625 89.21875 C 402.367188 90.859375 404.535156 92.554688 406.664062 94.300781 C 408.792969 96.050781 410.875 97.847656 412.914062 99.699219 C 414.953125 101.546875 416.949219 103.445312 418.894531 105.394531 C 420.839844 107.339844 422.738281 109.335938 424.585938 111.375 C 426.433594 113.417969 428.230469 115.503906 429.976562 117.632812 C 431.722656 119.761719 433.417969 121.929688 435.058594 124.144531 C 436.695312 126.355469 438.28125 128.605469 439.808594 130.898438 C 441.339844 133.1875 442.8125 135.515625 444.226562 137.875 C 445.640625 140.238281 446.996094 142.636719 448.296875 145.0625 C 449.59375 147.492188 450.828125 149.953125 452.007812 152.441406 C 453.183594 154.933594 454.300781 157.449219 455.351562 159.996094 C 456.40625 162.539062 457.394531 165.109375 458.324219 167.703125 C 459.25 170.292969 460.113281 172.910156 460.914062 175.546875 C 461.710938 178.179688 462.445312 180.835938 463.113281 183.507812 C 463.78125 186.179688 464.386719 188.863281 464.921875 191.566406 C 465.460938 194.269531 465.929688 196.980469 466.335938 199.707031 C 466.738281 202.429688 467.074219 205.164062 467.34375 207.902344 C 467.613281 210.644531 467.816406 213.390625 467.953125 216.140625 C 468.085938 218.894531 468.15625 221.644531 468.15625 224.398438 C 468.152344 227.152344 468.082031 229.90625 467.945312 232.65625 C 467.804688 235.40625 467.601562 238.152344 467.328125 240.890625 C 467.054688 243.628906 466.714844 246.363281 466.3125 249.085938 C 465.90625 251.808594 465.433594 254.519531 464.894531 257.222656 C 464.355469 259.921875 463.75 262.605469 463.078125 265.277344 C 462.40625 267.949219 461.671875 270.601562 460.871094 273.234375 C 460.070312 275.867188 459.207031 278.480469 458.277344 281.074219 C 457.347656 283.667969 456.359375 286.234375 455.304688 288.777344 C 454.25 291.320312 453.132812 293.835938 451.957031 296.324219 C 450.777344 298.8125 449.539062 301.273438 448.242188 303.699219 C 446.945312 306.128906 445.585938 308.523438 444.171875 310.882812 C 442.757812 313.246094 441.285156 315.570312 439.753906 317.859375 C 438.226562 320.148438 436.640625 322.398438 435 324.609375 C 433.359375 326.820312 431.667969 328.992188 429.921875 331.121094 C 428.175781 333.246094 426.378906 335.332031 424.53125 337.371094 C 422.683594 339.410156 420.785156 341.40625 418.839844 343.351562 C 416.894531 345.300781 414.902344 347.199219 412.863281 349.046875 C 410.824219 350.898438 408.742188 352.695312 406.617188 354.441406 C 404.488281 356.1875 402.320312 357.882812 400.109375 359.523438 C 397.902344 361.164062 395.652344 362.75 393.363281 364.28125 C 391.078125 365.8125 388.753906 367.285156 386.394531 368.699219 C 384.035156 370.117188 381.640625 371.472656 379.214844 372.773438 C 376.789062 374.074219 374.332031 375.3125 371.84375 376.488281 C 369.359375 377.667969 366.84375 378.785156 364.300781 379.839844 C 361.761719 380.894531 359.195312 381.886719 356.605469 382.816406 C 354.015625 383.746094 351.402344 384.609375 348.769531 385.414062 C 346.136719 386.214844 343.488281 386.949219 340.816406 387.621094 C 338.148438 388.292969 335.464844 388.898438 332.765625 389.4375 C 330.070312 389.976562 327.359375 390.449219 324.636719 390.855469 C 321.914062 391.261719 319.1875 391.601562 316.449219 391.875 C 313.710938 392.144531 310.964844 392.351562 308.21875 392.488281 C 305.46875 392.625 302.71875 392.695312 299.96875 392.699219 Z M 299.96875 392.699219 " fill-opacity="1" fill-rule="nonzero"/><path fill="#000000" d="M 365.9375 158.382812 C 365.289062 157.734375 364.582031 157.152344 363.816406 156.640625 C 363.050781 156.128906 362.242188 155.699219 361.394531 155.34375 C 360.542969 154.992188 359.667969 154.726562 358.765625 154.546875 C 357.863281 154.367188 356.949219 154.277344 356.03125 154.277344 C 355.109375 154.277344 354.199219 154.367188 353.296875 154.546875 C 352.394531 154.726562 351.519531 154.992188 350.667969 155.34375 C 349.816406 155.699219 349.011719 156.128906 348.246094 156.640625 C 347.480469 157.152344 346.773438 157.734375 346.121094 158.382812 L 299.96875 204.570312 L 253.816406 158.382812 C 253.160156 157.75 252.449219 157.1875 251.6875 156.695312 C 250.921875 156.199219 250.117188 155.785156 249.273438 155.445312 C 248.425781 155.109375 247.558594 154.855469 246.664062 154.6875 C 245.769531 154.519531 244.867188 154.441406 243.957031 154.449219 C 243.046875 154.457031 242.144531 154.550781 241.253906 154.734375 C 240.363281 154.917969 239.496094 155.1875 238.660156 155.539062 C 237.820312 155.890625 237.023438 156.320312 236.265625 156.828125 C 235.511719 157.335938 234.8125 157.910156 234.167969 158.554688 C 233.523438 159.199219 232.949219 159.898438 232.441406 160.65625 C 231.933594 161.410156 231.503906 162.210938 231.152344 163.046875 C 230.800781 163.886719 230.53125 164.753906 230.351562 165.648438 C 230.167969 166.539062 230.070312 167.441406 230.0625 168.351562 C 230.054688 169.261719 230.136719 170.164062 230.304688 171.058594 C 230.46875 171.953125 230.722656 172.824219 231.058594 173.671875 C 231.398438 174.515625 231.8125 175.320312 232.308594 176.085938 C 232.800781 176.851562 233.363281 177.5625 233.996094 178.214844 L 280.148438 224.398438 L 233.996094 270.585938 C 233.328125 271.230469 232.730469 271.9375 232.199219 272.703125 C 231.671875 273.46875 231.222656 274.28125 230.855469 275.136719 C 230.488281 275.992188 230.210938 276.875 230.019531 277.785156 C 229.828125 278.699219 229.726562 279.621094 229.71875 280.550781 C 229.710938 281.480469 229.792969 282.40625 229.96875 283.320312 C 230.144531 284.234375 230.410156 285.121094 230.761719 285.984375 C 231.113281 286.84375 231.546875 287.664062 232.0625 288.4375 C 232.578125 289.214844 233.164062 289.929688 233.824219 290.589844 C 234.480469 291.246094 235.199219 291.835938 235.972656 292.351562 C 236.746094 292.867188 237.566406 293.300781 238.425781 293.652344 C 239.289062 294.003906 240.175781 294.269531 241.089844 294.445312 C 242.003906 294.621094 242.925781 294.703125 243.855469 294.695312 C 244.785156 294.6875 245.707031 294.589844 246.617188 294.398438 C 247.527344 294.207031 248.410156 293.925781 249.265625 293.558594 C 250.121094 293.191406 250.929688 292.742188 251.695312 292.214844 C 252.460938 291.683594 253.167969 291.085938 253.816406 290.414062 L 299.96875 244.230469 L 346.121094 290.414062 C 346.777344 291.046875 347.484375 291.613281 348.25 292.105469 C 349.015625 292.601562 349.820312 293.015625 350.664062 293.355469 C 351.507812 293.691406 352.378906 293.945312 353.273438 294.113281 C 354.167969 294.28125 355.070312 294.359375 355.980469 294.351562 C 356.890625 294.34375 357.789062 294.25 358.683594 294.066406 C 359.574219 293.882812 360.4375 293.613281 361.277344 293.261719 C 362.117188 292.910156 362.914062 292.480469 363.667969 291.972656 C 364.425781 291.464844 365.125 290.886719 365.769531 290.246094 C 366.410156 289.601562 366.988281 288.902344 367.496094 288.144531 C 368 287.386719 368.429688 286.589844 368.78125 285.75 C 369.136719 284.910156 369.402344 284.046875 369.585938 283.152344 C 369.769531 282.261719 369.863281 281.359375 369.871094 280.449219 C 369.878906 279.539062 369.800781 278.636719 369.632812 277.742188 C 369.464844 276.847656 369.210938 275.976562 368.875 275.128906 C 368.539062 274.285156 368.121094 273.480469 367.628906 272.714844 C 367.132812 271.949219 366.570312 271.238281 365.9375 270.585938 L 319.785156 224.398438 L 365.9375 178.214844 C 366.589844 177.566406 367.171875 176.855469 367.683594 176.089844 C 368.191406 175.324219 368.625 174.515625 368.976562 173.667969 C 369.328125 172.816406 369.59375 171.9375 369.773438 171.035156 C 369.953125 170.132812 370.042969 169.222656 370.042969 168.300781 C 370.042969 167.378906 369.953125 166.46875 369.773438 165.5625 C 369.59375 164.660156 369.328125 163.785156 368.976562 162.933594 C 368.625 162.082031 368.191406 161.273438 367.683594 160.507812 C 367.171875 159.742188 366.589844 159.035156 365.9375 158.382812 Z M 365.9375 158.382812 " fill-opacity="1" fill-rule="nonzero"/></svg>