<svg xmlns="http://www.w3.org/2000/svg" xmlns:xlink="http://www.w3.org/1999/xlink" width="800" zoomAndPan="magnify" viewBox="0 0 600 449.999984" height="600" preserveAspectRatio="xMidYMid meet" version="1.0"><path fill="#000000" d="M 436.59375 63.78125 L 163.640625 63.78125 C 162.523438 63.78125 161.410156 63.808594 160.292969 63.863281 C 159.179688 63.917969 158.066406 64 156.953125 64.109375 C 155.84375 64.21875 154.734375 64.355469 153.628906 64.519531 C 152.523438 64.683594 151.425781 64.875 150.328125 65.09375 C 149.234375 65.308594 148.144531 65.554688 147.0625 65.824219 C 145.976562 66.097656 144.902344 66.394531 143.832031 66.71875 C 142.765625 67.042969 141.703125 67.390625 140.652344 67.769531 C 139.601562 68.144531 138.558594 68.546875 137.527344 68.972656 C 136.496094 69.398438 135.476562 69.851562 134.464844 70.328125 C 133.457031 70.804688 132.460938 71.308594 131.476562 71.832031 C 130.488281 72.359375 129.519531 72.910156 128.558594 73.480469 C 127.601562 74.054688 126.660156 74.652344 125.730469 75.273438 C 124.800781 75.890625 123.890625 76.535156 122.992188 77.199219 C 122.09375 77.863281 121.214844 78.550781 120.351562 79.257812 C 119.488281 79.964844 118.644531 80.695312 117.816406 81.441406 C 116.988281 82.191406 116.179688 82.960938 115.390625 83.75 C 114.601562 84.539062 113.832031 85.347656 113.082031 86.175781 C 112.332031 87 111.601562 87.84375 110.894531 88.707031 C 110.183594 89.570312 109.496094 90.449219 108.832031 91.347656 C 108.167969 92.242188 107.523438 93.152344 106.902344 94.082031 C 106.285156 95.007812 105.6875 95.953125 105.113281 96.910156 C 104.539062 97.867188 103.988281 98.835938 103.460938 99.820312 C 102.933594 100.804688 102.433594 101.800781 101.957031 102.808594 C 101.476562 103.816406 101.023438 104.835938 100.597656 105.867188 C 100.171875 106.898438 99.769531 107.9375 99.390625 108.988281 C 99.015625 110.039062 98.667969 111.097656 98.34375 112.167969 C 98.019531 113.234375 97.71875 114.308594 97.449219 115.390625 C 97.175781 116.472656 96.933594 117.5625 96.714844 118.65625 C 96.496094 119.75 96.304688 120.851562 96.140625 121.953125 C 95.976562 123.058594 95.839844 124.164062 95.730469 125.273438 C 95.621094 126.386719 95.539062 127.496094 95.484375 128.613281 C 95.429688 129.726562 95.402344 130.839844 95.402344 131.957031 L 95.402344 283.457031 C 95.40625 284.570312 95.4375 285.6875 95.492188 286.800781 C 95.550781 287.914062 95.632812 289.023438 95.746094 290.132812 C 95.859375 291.242188 95.996094 292.351562 96.160156 293.453125 C 96.328125 294.554688 96.519531 295.652344 96.738281 296.746094 C 96.960938 297.839844 97.207031 298.925781 97.476562 300.007812 C 97.75 301.089844 98.050781 302.164062 98.375 303.230469 C 98.703125 304.296875 99.050781 305.355469 99.429688 306.402344 C 99.808594 307.453125 100.210938 308.492188 100.636719 309.523438 C 101.066406 310.550781 101.519531 311.570312 101.996094 312.578125 C 102.476562 313.585938 102.980469 314.582031 103.503906 315.5625 C 104.03125 316.546875 104.582031 317.515625 105.15625 318.472656 C 105.730469 319.429688 106.328125 320.371094 106.949219 321.296875 C 107.570312 322.222656 108.214844 323.132812 108.878906 324.03125 C 109.542969 324.925781 110.230469 325.804688 110.9375 326.664062 C 111.648438 327.527344 112.375 328.371094 113.125 329.195312 C 113.875 330.023438 114.644531 330.832031 115.433594 331.617188 C 116.222656 332.40625 117.03125 333.175781 117.859375 333.925781 C 118.683594 334.675781 119.53125 335.402344 120.394531 336.109375 C 121.253906 336.816406 122.132812 337.503906 123.03125 338.167969 C 123.925781 338.832031 124.839844 339.476562 125.765625 340.09375 C 126.695312 340.714844 127.636719 341.3125 128.59375 341.886719 C 129.550781 342.460938 130.519531 343.011719 131.503906 343.535156 C 132.488281 344.0625 133.484375 344.566406 134.492188 345.042969 C 135.5 345.519531 136.519531 345.972656 137.550781 346.402344 C 138.582031 346.828125 139.621094 347.230469 140.671875 347.609375 C 141.722656 347.984375 142.78125 348.335938 143.851562 348.660156 C 144.917969 348.988281 145.992188 349.285156 147.074219 349.558594 C 148.15625 349.832031 149.246094 350.078125 150.339844 350.296875 C 151.433594 350.515625 152.53125 350.707031 153.636719 350.875 C 154.742188 351.039062 155.847656 351.179688 156.957031 351.289062 C 158.070312 351.402344 159.179688 351.484375 160.296875 351.542969 C 161.410156 351.597656 162.527344 351.628906 163.640625 351.632812 L 239.460938 351.632812 C 239.960938 351.632812 240.453125 351.679688 240.941406 351.777344 C 241.429688 351.875 241.902344 352.015625 242.363281 352.207031 C 242.824219 352.398438 243.261719 352.632812 243.675781 352.90625 C 244.089844 353.183594 244.472656 353.5 244.824219 353.851562 C 245.175781 354.203125 245.488281 354.585938 245.765625 354.996094 C 246.042969 355.410156 246.277344 355.847656 246.46875 356.308594 C 246.65625 356.765625 246.800781 357.242188 246.898438 357.726562 C 246.996094 358.214844 247.042969 358.707031 247.042969 359.207031 L 247.042969 398.292969 C 247.027344 399.417969 247.09375 400.539062 247.242188 401.652344 C 247.394531 402.765625 247.625 403.863281 247.9375 404.945312 C 248.253906 406.027344 248.644531 407.078125 249.117188 408.097656 C 249.589844 409.121094 250.132812 410.101562 250.753906 411.039062 C 251.371094 411.980469 252.054688 412.871094 252.808594 413.707031 C 253.558594 414.546875 254.367188 415.324219 255.234375 416.039062 C 256.101562 416.757812 257.019531 417.40625 257.984375 417.984375 C 258.949219 418.566406 259.953125 419.070312 260.992188 419.5 C 262.03125 419.933594 263.097656 420.28125 264.191406 420.554688 C 265.285156 420.824219 266.390625 421.011719 267.511719 421.117188 C 268.632812 421.226562 269.757812 421.246094 270.878906 421.183594 C 272.003906 421.121094 273.117188 420.976562 274.222656 420.75 C 275.324219 420.519531 276.402344 420.210938 277.460938 419.824219 C 278.515625 419.433594 279.539062 418.96875 280.523438 418.425781 C 281.511719 417.882812 282.453125 417.269531 283.347656 416.585938 C 284.242188 415.90625 285.082031 415.160156 285.863281 414.351562 L 342.121094 358.296875 C 343.179688 357.242188 344.324219 356.300781 345.566406 355.46875 C 346.808594 354.640625 348.117188 353.9375 349.496094 353.367188 C 350.875 352.796875 352.296875 352.363281 353.761719 352.070312 C 355.226562 351.777344 356.703125 351.632812 358.195312 351.632812 L 436.59375 351.632812 C 437.710938 351.628906 438.828125 351.597656 439.941406 351.542969 C 441.054688 351.484375 442.167969 351.402344 443.277344 351.289062 C 444.390625 351.179688 445.496094 351.039062 446.601562 350.875 C 447.703125 350.707031 448.804688 350.515625 449.898438 350.296875 C 450.992188 350.078125 452.078125 349.832031 453.160156 349.558594 C 454.246094 349.285156 455.320312 348.988281 456.386719 348.660156 C 457.453125 348.335938 458.511719 347.984375 459.5625 347.609375 C 460.613281 347.230469 461.65625 346.828125 462.683594 346.402344 C 463.714844 345.972656 464.734375 345.519531 465.742188 345.042969 C 466.753906 344.566406 467.75 344.0625 468.730469 343.535156 C 469.714844 343.011719 470.6875 342.460938 471.644531 341.886719 C 472.601562 341.3125 473.542969 340.714844 474.46875 340.09375 C 475.398438 339.476562 476.308594 338.832031 477.207031 338.167969 C 478.101562 337.503906 478.980469 336.816406 479.84375 336.109375 C 480.707031 335.402344 481.550781 334.675781 482.378906 333.925781 C 483.207031 333.175781 484.011719 332.40625 484.800781 331.617188 C 485.589844 330.832031 486.359375 330.023438 487.109375 329.195312 C 487.859375 328.371094 488.589844 327.527344 489.296875 326.664062 C 490.007812 325.804688 490.691406 324.925781 491.359375 324.03125 C 492.023438 323.132812 492.667969 322.222656 493.285156 321.296875 C 493.90625 320.371094 494.503906 319.429688 495.078125 318.472656 C 495.652344 317.515625 496.203125 316.546875 496.730469 315.5625 C 497.257812 314.582031 497.761719 313.585938 498.238281 312.578125 C 498.71875 311.570312 499.171875 310.550781 499.597656 309.523438 C 500.027344 308.492188 500.429688 307.453125 500.808594 306.402344 C 501.183594 305.355469 501.535156 304.296875 501.859375 303.230469 C 502.1875 302.164062 502.484375 301.089844 502.757812 300.007812 C 503.03125 298.925781 503.277344 297.839844 503.496094 296.746094 C 503.714844 295.652344 503.910156 294.554688 504.074219 293.453125 C 504.242188 292.351562 504.378906 291.242188 504.492188 290.132812 C 504.601562 289.023438 504.6875 287.914062 504.742188 286.800781 C 504.800781 285.6875 504.832031 284.570312 504.832031 283.457031 L 504.832031 131.957031 C 504.832031 130.839844 504.804688 129.726562 504.75 128.613281 C 504.695312 127.496094 504.613281 126.386719 504.503906 125.273438 C 504.394531 124.164062 504.257812 123.058594 504.09375 121.953125 C 503.929688 120.851562 503.738281 119.75 503.523438 118.65625 C 503.304688 117.5625 503.058594 116.472656 502.789062 115.390625 C 502.515625 114.308594 502.21875 113.234375 501.894531 112.167969 C 501.570312 111.097656 501.21875 110.039062 500.84375 108.988281 C 500.46875 107.9375 500.066406 106.898438 499.640625 105.867188 C 499.210938 104.835938 498.757812 103.816406 498.28125 102.808594 C 497.804688 101.800781 497.300781 100.804688 496.777344 99.820312 C 496.25 98.835938 495.699219 97.867188 495.125 96.910156 C 494.550781 95.953125 493.953125 95.007812 493.332031 94.082031 C 492.710938 93.152344 492.070312 92.242188 491.40625 91.34375 C 490.738281 90.449219 490.050781 89.570312 489.34375 88.707031 C 488.636719 87.84375 487.90625 87 487.15625 86.175781 C 486.40625 85.347656 485.636719 84.539062 484.847656 83.75 C 484.058594 82.960938 483.25 82.191406 482.421875 81.441406 C 481.59375 80.695312 480.75 79.964844 479.886719 79.257812 C 479.023438 78.550781 478.140625 77.863281 477.246094 77.199219 C 476.347656 76.535156 475.433594 75.890625 474.507812 75.273438 C 473.578125 74.652344 472.632812 74.054688 471.675781 73.480469 C 470.71875 72.910156 469.746094 72.359375 468.761719 71.832031 C 467.777344 71.308594 466.78125 70.804688 465.769531 70.328125 C 464.761719 69.851562 463.742188 69.398438 462.707031 68.972656 C 461.675781 68.546875 460.636719 68.144531 459.582031 67.769531 C 458.53125 67.390625 457.472656 67.042969 456.402344 66.71875 C 455.335938 66.394531 454.257812 66.097656 453.175781 65.824219 C 452.09375 65.554688 451.003906 65.308594 449.90625 65.09375 C 448.8125 64.875 447.710938 64.683594 446.609375 64.519531 C 445.503906 64.355469 444.394531 64.21875 443.285156 64.109375 C 442.171875 64 441.058594 63.917969 439.941406 63.863281 C 438.828125 63.808594 437.710938 63.78125 436.59375 63.78125 Z M 489.667969 283.457031 C 489.667969 285.191406 489.585938 286.925781 489.414062 288.652344 C 489.242188 290.382812 488.988281 292.097656 488.648438 293.800781 C 488.308594 295.503906 487.886719 297.1875 487.382812 298.847656 C 486.878906 300.511719 486.292969 302.144531 485.628906 303.75 C 484.964844 305.351562 484.222656 306.921875 483.402344 308.453125 C 482.582031 309.984375 481.691406 311.472656 480.722656 312.914062 C 479.757812 314.359375 478.726562 315.753906 477.621094 317.09375 C 476.519531 318.4375 475.351562 319.722656 474.125 320.949219 C 472.894531 322.179688 471.609375 323.34375 470.265625 324.445312 C 468.921875 325.546875 467.527344 326.582031 466.082031 327.546875 C 464.636719 328.511719 463.148438 329.402344 461.613281 330.21875 C 460.082031 331.039062 458.511719 331.78125 456.90625 332.445312 C 455.300781 333.109375 453.664062 333.695312 452 334.199219 C 450.339844 334.703125 448.652344 335.125 446.949219 335.460938 C 445.246094 335.800781 443.527344 336.054688 441.796875 336.226562 C 440.066406 336.394531 438.332031 336.480469 436.59375 336.480469 L 358.195312 336.480469 C 355.707031 336.472656 353.238281 336.707031 350.792969 337.1875 C 348.347656 337.667969 345.972656 338.382812 343.671875 339.332031 C 341.367188 340.28125 339.179688 341.445312 337.105469 342.828125 C 335.035156 344.207031 333.117188 345.78125 331.355469 347.539062 L 275.097656 403.746094 C 274.5625 404.269531 273.964844 404.707031 273.300781 405.050781 C 272.636719 405.398438 271.9375 405.640625 271.203125 405.78125 C 270.46875 405.917969 269.726562 405.949219 268.984375 405.871094 C 268.238281 405.789062 267.523438 405.605469 266.832031 405.3125 C 266.144531 405.019531 265.511719 404.636719 264.9375 404.15625 C 264.363281 403.679688 263.867188 403.125 263.457031 402.503906 C 263.046875 401.878906 262.734375 401.207031 262.519531 400.488281 C 262.308594 399.773438 262.203125 399.039062 262.207031 398.292969 L 262.207031 359.207031 C 262.207031 358.460938 262.171875 357.71875 262.097656 356.980469 C 262.027344 356.238281 261.917969 355.503906 261.769531 354.773438 C 261.625 354.042969 261.445312 353.320312 261.230469 352.609375 C 261.011719 351.898438 260.761719 351.199219 260.476562 350.507812 C 260.191406 349.820312 259.875 349.148438 259.523438 348.492188 C 259.171875 347.835938 258.789062 347.199219 258.375 346.582031 C 257.960938 345.960938 257.519531 345.363281 257.046875 344.789062 C 256.574219 344.214844 256.074219 343.664062 255.546875 343.136719 C 255.019531 342.609375 254.46875 342.113281 253.890625 341.640625 C 253.316406 341.167969 252.71875 340.726562 252.097656 340.3125 C 251.480469 339.898438 250.839844 339.515625 250.183594 339.164062 C 249.527344 338.8125 248.855469 338.496094 248.167969 338.210938 C 247.480469 337.925781 246.777344 337.675781 246.066406 337.460938 C 245.351562 337.242188 244.628906 337.0625 243.898438 336.917969 C 243.167969 336.773438 242.433594 336.664062 241.691406 336.589844 C 240.949219 336.519531 240.207031 336.480469 239.460938 336.480469 L 163.640625 336.480469 C 161.902344 336.480469 160.167969 336.394531 158.441406 336.226562 C 156.710938 336.054688 154.992188 335.800781 153.289062 335.460938 C 151.582031 335.125 149.898438 334.703125 148.234375 334.199219 C 146.570312 333.695312 144.9375 333.109375 143.332031 332.445312 C 141.726562 331.78125 140.15625 331.039062 138.621094 330.21875 C 137.089844 329.402344 135.601562 328.511719 134.15625 327.546875 C 132.710938 326.582031 131.316406 325.546875 129.972656 324.445312 C 128.628906 323.34375 127.34375 322.179688 126.113281 320.949219 C 124.882812 319.722656 123.71875 318.4375 122.613281 317.09375 C 121.511719 315.753906 120.476562 314.359375 119.511719 312.914062 C 118.546875 311.472656 117.652344 309.984375 116.835938 308.453125 C 116.015625 306.921875 115.273438 305.351562 114.609375 303.75 C 113.941406 302.144531 113.359375 300.511719 112.851562 298.847656 C 112.347656 297.1875 111.925781 295.503906 111.585938 293.800781 C 111.25 292.097656 110.992188 290.382812 110.824219 288.652344 C 110.652344 286.925781 110.566406 285.191406 110.566406 283.457031 L 110.566406 131.957031 C 110.566406 130.21875 110.652344 128.488281 110.824219 126.761719 C 110.992188 125.03125 111.25 123.316406 111.585938 121.613281 C 111.925781 119.910156 112.347656 118.226562 112.851562 116.566406 C 113.359375 114.902344 113.941406 113.269531 114.609375 111.664062 C 115.273438 110.0625 116.015625 108.492188 116.835938 106.960938 C 117.652344 105.429688 118.546875 103.941406 119.511719 102.5 C 120.476562 101.054688 121.511719 99.660156 122.613281 98.320312 C 123.71875 96.976562 124.882812 95.691406 126.113281 94.464844 C 127.34375 93.234375 128.628906 92.070312 129.972656 90.96875 C 131.316406 89.867188 132.710938 88.832031 134.15625 87.867188 C 135.601562 86.902344 137.089844 86.011719 138.621094 85.195312 C 140.15625 84.375 141.726562 83.632812 143.332031 82.96875 C 144.9375 82.304688 146.570312 81.71875 148.234375 81.214844 C 149.898438 80.710938 151.582031 80.289062 153.289062 79.953125 C 154.992188 79.613281 156.710938 79.359375 158.441406 79.1875 C 160.167969 79.019531 161.902344 78.933594 163.640625 78.933594 L 436.59375 78.933594 C 438.332031 78.933594 440.066406 79.019531 441.796875 79.1875 C 443.527344 79.359375 445.246094 79.613281 446.949219 79.953125 C 448.652344 80.289062 450.339844 80.710938 452 81.214844 C 453.664062 81.71875 455.300781 82.304688 456.90625 82.96875 C 458.511719 83.632812 460.082031 84.375 461.613281 85.195312 C 463.148438 86.011719 464.636719 86.902344 466.082031 87.867188 C 467.527344 88.832031 468.921875 89.867188 470.265625 90.96875 C 471.609375 92.070312 472.894531 93.234375 474.125 94.464844 C 475.351562 95.691406 476.519531 96.976562 477.621094 98.320312 C 478.726562 99.660156 479.757812 101.054688 480.722656 102.5 C 481.691406 103.941406 482.582031 105.429688 483.402344 106.960938 C 484.222656 108.492188 484.964844 110.0625 485.628906 111.664062 C 486.292969 113.269531 486.878906 114.902344 487.382812 116.566406 C 487.886719 118.226562 488.308594 119.910156 488.648438 121.613281 C 488.988281 123.316406 489.242188 125.03125 489.414062 126.761719 C 489.585938 128.488281 489.667969 130.21875 489.667969 131.957031 Z M 489.667969 283.457031 " fill-opacity="1" fill-rule="nonzero"/></svg>