<svg xmlns="http://www.w3.org/2000/svg" xmlns:xlink="http://www.w3.org/1999/xlink" width="800" zoomAndPan="magnify" viewBox="0 0 600 449.999984" height="600" preserveAspectRatio="xMidYMid meet" version="1.0"><path fill="#000000" d="M 136.558594 389.78125 C 138.59375 391.816406 141.25 392.835938 143.90625 392.835938 C 146.582031 392.835938 149.242188 391.816406 151.277344 389.78125 L 300.066406 240.753906 L 448.855469 389.78125 C 450.890625 391.816406 453.546875 392.835938 456.222656 392.835938 C 458.882812 392.835938 461.558594 391.816406 463.574219 389.78125 C 467.644531 385.707031 467.644531 379.128906 463.59375 375.058594 L 314.972656 226.199219 L 463.59375 77.339844 C 467.664062 73.269531 467.664062 66.671875 463.574219 62.621094 C 459.503906 58.546875 452.90625 58.546875 448.855469 62.636719 L 300.066406 211.648438 L 151.277344 62.636719 C 147.207031 58.566406 140.609375 58.566406 136.558594 62.621094 C 132.46875 66.691406 132.46875 73.289062 136.539062 77.339844 L 285.160156 226.199219 L 136.539062 375.058594 C 132.46875 379.128906 132.46875 385.726562 136.558594 389.78125 Z M 136.558594 389.78125 " fill-opacity="1" fill-rule="nonzero"/></svg>