<svg xmlns="http://www.w3.org/2000/svg" xmlns:xlink="http://www.w3.org/1999/xlink" width="800" zoomAndPan="magnify" viewBox="0 0 600 449.999984" height="600" preserveAspectRatio="xMidYMid meet" version="1.0"><path fill="#000000" d="M 437.941406 142.261719 L 378.058594 142.261719 L 378.058594 72.691406 C 378.058594 59.941406 367.4375 49.640625 354.367188 49.640625 L 316.460938 49.640625 C 304.203125 49.640625 293.828125 58.878906 292.847656 70.648438 C 291.378906 87.980469 283.128906 104.65625 274.058594 117.574219 C 270.382812 122.886719 266.542969 127.546875 263.03125 131.390625 L 263.03125 96.5625 C 263.03125 82.832031 251.835938 71.710938 238.195312 71.710938 L 195.46875 71.710938 C 182.558594 71.710938 171.773438 81.765625 170.796875 94.519531 C 167.363281 138.992188 132.152344 179.703125 122.023438 185.917969 L 121.941406 185.917969 C 114.585938 190.496094 110.175781 198.425781 110.175781 207.089844 L 110.175781 379.910156 C 110.175781 393.5625 121.285156 404.679688 134.929688 404.679688 L 332.472656 404.679688 C 346.195312 404.679688 357.308594 393.5625 357.308594 379.910156 L 357.308594 324.972656 L 437.941406 324.972656 C 451.09375 324.972656 461.714844 314.589844 461.714844 301.921875 L 461.714844 165.234375 C 461.714844 152.5625 451.09375 142.261719 437.941406 142.261719 Z M 326.261719 308.726562 L 291.464844 308.726562 C 282.890625 308.726562 275.941406 315.679688 275.941406 324.261719 C 275.941406 332.84375 282.890625 339.796875 291.464844 339.796875 L 326.261719 339.796875 L 326.261719 373.613281 L 141.222656 373.613281 L 141.222656 210.441406 C 158.949219 197.28125 194.8125 154.359375 201.105469 102.777344 L 231.984375 102.777344 L 231.984375 192.457031 C 231.984375 199.242188 234.679688 205.210938 239.011719 209.707031 C 243.503906 214.367188 249.796875 217.226562 256.738281 217.226562 L 326.261719 217.226562 L 326.261719 251.101562 L 271.351562 251.101562 C 262.777344 251.101562 255.832031 258.054688 255.832031 266.636719 C 255.832031 275.21875 262.777344 282.171875 271.351562 282.171875 L 326.261719 282.171875 Z M 357.308594 293.910156 L 357.308594 211.015625 C 357.308594 197.28125 346.195312 186.164062 332.472656 186.164062 L 270.054688 186.164062 L 270.054688 166.707031 C 286.230469 155.097656 316.378906 121.335938 322.832031 80.703125 L 347.015625 80.703125 L 347.015625 150.273438 C 347.015625 162.945312 357.714844 173.328125 370.789062 173.328125 L 430.671875 173.328125 L 430.671875 194.746094 L 383.734375 194.746094 C 375.164062 194.746094 368.214844 201.699219 368.214844 210.28125 C 368.214844 218.863281 375.164062 225.816406 383.734375 225.816406 L 430.671875 225.816406 L 430.671875 241.363281 L 401.570312 241.363281 C 393 241.363281 386.050781 248.316406 386.050781 256.898438 C 386.050781 265.480469 393 272.433594 401.570312 272.433594 L 430.671875 272.433594 L 430.671875 293.910156 Z M 357.308594 293.910156 " fill-opacity="1" fill-rule="nonzero"/></svg>