<svg xmlns="http://www.w3.org/2000/svg" xmlns:xlink="http://www.w3.org/1999/xlink" width="800" zoomAndPan="magnify" viewBox="0 0 600 449.999984" height="600" preserveAspectRatio="xMidYMid meet" version="1.0"><path fill="#000000" d="M 595.273438 213.609375 L 514.5625 132.898438 C 509.957031 128.292969 502.929688 126.960938 496.992188 129.382812 C 490.929688 131.929688 487.054688 137.746094 487.054688 144.289062 L 487.054688 192.644531 L 112.945312 192.644531 L 112.945312 144.167969 C 112.945312 137.746094 109.070312 131.929688 103.007812 129.382812 C 101.070312 128.535156 98.890625 128.171875 96.828125 128.171875 C 92.585938 128.171875 88.46875 129.867188 85.4375 132.898438 L 4.726562 213.609375 C 1.695312 216.636719 0 220.757812 0 225 C 0 229.242188 1.695312 233.363281 4.726562 236.390625 L 85.4375 317.101562 C 90.042969 321.707031 97.070312 323.039062 103.007812 320.617188 C 109.070312 318.070312 112.945312 312.253906 112.945312 305.710938 L 112.945312 257.355469 L 487.054688 257.355469 L 487.054688 305.832031 C 487.054688 312.375 490.929688 318.191406 496.992188 320.738281 C 498.929688 321.585938 501.109375 321.949219 503.171875 321.949219 C 507.414062 321.949219 511.53125 320.253906 514.5625 317.222656 L 595.273438 236.511719 C 598.304688 233.484375 600 229.363281 600 225.121094 C 600 220.757812 598.304688 216.636719 595.273438 213.609375 Z M 595.273438 213.609375 " fill-opacity="1" fill-rule="nonzero"/></svg>