<svg xmlns="http://www.w3.org/2000/svg" xmlns:xlink="http://www.w3.org/1999/xlink" width="800" zoomAndPan="magnify" viewBox="0 0 600 449.999984" height="600" preserveAspectRatio="xMidYMid meet" version="1.0"><path fill="#000000" d="M 300.015625 22.261719 C 189.292969 22.277344 99.554688 111.949219 99.542969 222.605469 C 99.554688 333.253906 189.292969 422.925781 300.015625 422.941406 C 410.738281 422.925781 500.472656 333.253906 500.484375 222.605469 L 500.488281 222.605469 C 500.472656 111.949219 410.738281 22.277344 300.015625 22.261719 Z M 457.976562 222.601562 C 457.976562 258.128906 446.167969 290.953125 426.269531 317.355469 L 322.242188 213.402344 L 322.242188 66.316406 C 398.859375 77.148438 457.976562 143.101562 457.976562 222.601562 Z M 322.242188 378.886719 L 322.242188 276.222656 L 394.832031 348.769531 C 374.011719 364.4375 349.210938 375.070312 322.242188 378.886719 Z M 173.757812 317.359375 C 153.863281 290.957031 142.050781 258.128906 142.050781 222.601562 C 142.050781 143.101562 201.171875 77.144531 277.789062 66.316406 L 277.789062 213.40625 L 268.585938 222.605469 Z M 205.195312 348.773438 L 277.789062 276.230469 L 277.789062 378.890625 C 250.816406 375.070312 226.015625 364.4375 205.195312 348.773438 Z M 205.195312 348.773438 " fill-opacity="1" fill-rule="nonzero"/></svg>