<svg xmlns="http://www.w3.org/2000/svg" xmlns:xlink="http://www.w3.org/1999/xlink" width="800" zoomAndPan="magnify" viewBox="0 0 600 449.999984" height="600" preserveAspectRatio="xMidYMid meet" version="1.0"><path fill="#000000" d="M 372.769531 148.589844 L 340.171875 148.589844 L 330.164062 117.585938 C 329.726562 116.269531 329.1875 114.996094 328.550781 113.765625 C 327.914062 112.53125 327.183594 111.359375 326.363281 110.242188 C 325.539062 109.121094 324.636719 108.074219 323.652344 107.097656 C 322.667969 106.121094 321.609375 105.230469 320.484375 104.417969 C 319.359375 103.605469 318.179688 102.886719 316.941406 102.261719 C 315.703125 101.636719 314.421875 101.109375 313.101562 100.683594 C 311.78125 100.257812 310.4375 99.933594 309.066406 99.71875 C 307.695312 99.503906 306.316406 99.394531 304.929688 99.394531 C 303.542969 99.394531 302.164062 99.503906 300.792969 99.71875 C 299.421875 99.933594 298.074219 100.257812 296.753906 100.683594 C 295.433594 101.109375 294.15625 101.636719 292.917969 102.261719 C 291.679688 102.886719 290.496094 103.605469 289.371094 104.417969 C 288.246094 105.230469 287.191406 106.121094 286.207031 107.097656 C 285.21875 108.074219 284.316406 109.121094 283.496094 110.242188 C 282.675781 111.359375 281.945312 112.53125 281.308594 113.765625 C 280.671875 114.996094 280.132812 116.269531 279.695312 117.585938 L 269.6875 148.589844 L 237.089844 148.589844 C 235.695312 148.582031 234.308594 148.683594 232.929688 148.894531 C 231.550781 149.109375 230.199219 149.425781 228.871094 149.851562 C 227.542969 150.277344 226.253906 150.804688 225.011719 151.433594 C 223.765625 152.0625 222.578125 152.785156 221.449219 153.601562 C 220.316406 154.421875 219.257812 155.320312 218.273438 156.304688 C 217.285156 157.289062 216.378906 158.34375 215.558594 159.472656 C 214.738281 160.597656 214.011719 161.785156 213.378906 163.027344 C 212.746094 164.269531 212.214844 165.550781 211.785156 166.878906 C 211.335938 168.199219 210.992188 169.550781 210.757812 170.925781 C 210.523438 172.304688 210.402344 173.691406 210.390625 175.089844 C 210.378906 176.484375 210.476562 177.875 210.6875 179.257812 C 210.898438 180.636719 211.21875 181.992188 211.648438 183.324219 C 212.078125 184.652344 212.609375 185.941406 213.242188 187.183594 C 213.878906 188.429688 214.609375 189.613281 215.433594 190.742188 C 216.261719 191.871094 217.167969 192.925781 218.164062 193.90625 C 219.160156 194.886719 220.226562 195.785156 221.363281 196.597656 L 247.671875 215.742188 L 237.664062 246.601562 C 237.210938 247.925781 236.871094 249.273438 236.636719 250.652344 C 236.402344 252.03125 236.277344 253.417969 236.265625 254.8125 C 236.253906 256.210938 236.355469 257.601562 236.566406 258.980469 C 236.777344 260.363281 237.097656 261.71875 237.527344 263.046875 C 237.953125 264.375 238.484375 265.664062 239.121094 266.910156 C 239.757812 268.152344 240.488281 269.339844 241.3125 270.464844 C 242.136719 271.59375 243.046875 272.648438 244.042969 273.632812 C 245.035156 274.613281 246.101562 275.507812 247.242188 276.320312 C 248.367188 277.140625 249.546875 277.867188 250.785156 278.5 C 252.023438 279.132812 253.304688 279.664062 254.628906 280.09375 C 255.953125 280.523438 257.300781 280.851562 258.675781 281.066406 C 260.050781 281.285156 261.433594 281.394531 262.824219 281.394531 C 264.214844 281.394531 265.597656 281.285156 266.972656 281.066406 C 268.347656 280.851562 269.695312 280.523438 271.019531 280.09375 C 272.34375 279.664062 273.625 279.132812 274.863281 278.5 C 276.101562 277.867188 277.285156 277.140625 278.410156 276.320312 L 304.859375 257.175781 L 331.164062 276.320312 C 332.289062 277.140625 333.46875 277.867188 334.707031 278.5 C 335.949219 279.132812 337.230469 279.664062 338.550781 280.09375 C 339.875 280.523438 341.222656 280.851562 342.597656 281.066406 C 343.972656 281.285156 345.355469 281.394531 346.746094 281.394531 C 348.140625 281.394531 349.523438 281.285156 350.894531 281.066406 C 352.269531 280.851562 353.621094 280.523438 354.941406 280.09375 C 356.265625 279.664062 357.546875 279.132812 358.785156 278.5 C 360.023438 277.867188 361.207031 277.140625 362.332031 276.320312 C 363.457031 275.5 364.511719 274.59375 365.492188 273.605469 C 366.472656 272.617188 367.371094 271.558594 368.179688 270.425781 C 368.992188 269.292969 369.710938 268.105469 370.332031 266.859375 C 370.953125 265.609375 371.472656 264.324219 371.886719 262.996094 C 372.300781 261.664062 372.609375 260.3125 372.808594 258.933594 C 373.007812 257.554688 373.097656 256.167969 373.074219 254.777344 C 373.050781 253.386719 372.917969 252.003906 372.675781 250.632812 C 372.433594 249.261719 372.082031 247.917969 371.625 246.601562 L 361.617188 215.597656 L 387.921875 196.453125 C 389.023438 195.632812 390.050781 194.734375 391.011719 193.753906 C 391.972656 192.773438 392.851562 191.726562 393.652344 190.609375 C 394.449219 189.496094 395.15625 188.324219 395.773438 187.097656 C 396.390625 185.875 396.910156 184.609375 397.332031 183.304688 C 397.75 181.996094 398.070312 180.667969 398.285156 179.3125 C 398.5 177.957031 398.609375 176.59375 398.613281 175.222656 C 398.613281 173.851562 398.511719 172.488281 398.304688 171.132812 C 398.097656 169.777344 397.785156 168.445312 397.371094 167.136719 C 396.957031 165.828125 396.445312 164.5625 395.835938 163.332031 C 395.226562 162.105469 394.523438 160.929688 393.730469 159.8125 C 392.9375 158.691406 392.066406 157.640625 391.109375 156.652344 C 390.152344 155.667969 389.128906 154.765625 388.03125 153.9375 C 386.9375 153.113281 385.785156 152.375 384.574219 151.726562 C 383.363281 151.082031 382.113281 150.53125 380.816406 150.074219 C 379.523438 149.621094 378.199219 149.269531 376.851562 149.023438 C 375.5 148.773438 374.140625 148.628906 372.769531 148.589844 Z M 344.175781 193.453125 C 343.050781 194.269531 342 195.167969 341.019531 196.152344 C 340.039062 197.132812 339.140625 198.183594 338.324219 199.308594 C 337.511719 200.433594 336.789062 201.613281 336.160156 202.847656 C 335.53125 204.085938 335 205.363281 334.574219 206.683594 C 334.144531 208.003906 333.824219 209.351562 333.609375 210.71875 C 333.394531 212.089844 333.285156 213.46875 333.289062 214.859375 C 333.289062 216.246094 333.402344 217.625 333.621094 218.996094 C 333.839844 220.363281 334.164062 221.707031 334.59375 223.027344 L 343.03125 249.460938 L 320.585938 233.171875 C 319.460938 232.351562 318.277344 231.625 317.039062 230.992188 C 315.800781 230.359375 314.519531 229.828125 313.195312 229.398438 C 311.871094 228.964844 310.523438 228.640625 309.148438 228.425781 C 307.773438 228.207031 306.390625 228.097656 305 228.097656 C 303.609375 228.097656 302.226562 228.207031 300.851562 228.425781 C 299.476562 228.640625 298.128906 228.964844 296.804688 229.398438 C 295.480469 229.828125 294.199219 230.359375 292.960938 230.992188 C 291.722656 231.625 290.542969 232.351562 289.417969 233.171875 L 266.972656 249.460938 L 275.550781 223.171875 C 275.980469 221.851562 276.304688 220.507812 276.523438 219.136719 C 276.742188 217.765625 276.851562 216.386719 276.855469 215 C 276.855469 213.613281 276.75 212.234375 276.535156 210.863281 C 276.320312 209.492188 275.996094 208.148438 275.570312 206.828125 C 275.140625 205.507812 274.613281 204.230469 273.984375 202.992188 C 273.355469 201.753906 272.632812 200.574219 271.820312 199.453125 C 271.003906 198.328125 270.105469 197.273438 269.125 196.292969 C 268.144531 195.3125 267.09375 194.410156 265.96875 193.59375 L 242.953125 177.164062 L 271.546875 177.164062 C 272.941406 177.171875 274.328125 177.070312 275.707031 176.859375 C 277.085938 176.648438 278.4375 176.328125 279.765625 175.902344 C 281.09375 175.476562 282.378906 174.949219 283.625 174.320312 C 284.871094 173.691406 286.058594 172.96875 287.1875 172.152344 C 288.316406 171.335938 289.375 170.433594 290.363281 169.449219 C 291.351562 168.464844 292.257812 167.410156 293.078125 166.28125 C 293.898438 165.15625 294.625 163.972656 295.257812 162.730469 C 295.890625 161.488281 296.421875 160.203125 296.851562 158.878906 L 305.429688 132.589844 L 314.007812 158.878906 C 314.429688 160.179688 314.949219 161.445312 315.570312 162.664062 C 316.1875 163.886719 316.898438 165.054688 317.699219 166.167969 C 318.496094 167.28125 319.378906 168.324219 320.34375 169.300781 C 321.304688 170.273438 322.335938 171.171875 323.441406 171.984375 C 324.542969 172.800781 325.699219 173.523438 326.914062 174.160156 C 328.128906 174.792969 329.386719 175.332031 330.683594 175.769531 C 331.984375 176.210938 333.308594 176.546875 334.660156 176.78125 C 336.007812 177.015625 337.371094 177.144531 338.742188 177.164062 L 366.476562 177.164062 Z M 344.175781 193.453125 " fill-opacity="1" fill-rule="nonzero"/><path fill="#000000" d="M 469.273438 40.148438 L 131.007812 40.148438 C 129.515625 40.148438 128.03125 40.222656 126.546875 40.367188 C 125.0625 40.515625 123.59375 40.734375 122.128906 41.023438 C 120.667969 41.316406 119.226562 41.679688 117.800781 42.113281 C 116.375 42.546875 114.972656 43.050781 113.597656 43.621094 C 112.222656 44.195312 110.878906 44.832031 109.5625 45.539062 C 108.25 46.242188 106.976562 47.011719 105.738281 47.839844 C 104.5 48.671875 103.308594 49.558594 102.160156 50.507812 C 101.007812 51.457031 99.910156 52.457031 98.859375 53.515625 C 97.808594 54.570312 96.8125 55.675781 95.871094 56.832031 C 94.929688 57.984375 94.046875 59.183594 93.226562 60.425781 C 92.402344 61.667969 91.640625 62.945312 90.945312 64.261719 C 90.246094 65.578125 89.617188 66.925781 89.054688 68.304688 C 88.488281 69.683594 87.996094 71.085938 87.570312 72.515625 C 87.144531 73.941406 86.789062 75.386719 86.507812 76.847656 C 86.226562 78.3125 86.015625 79.785156 85.878906 81.265625 C 85.742188 82.75 85.675781 84.234375 85.6875 85.726562 L 85.6875 293.179688 C 85.6875 294.664062 85.757812 296.144531 85.90625 297.617188 C 86.050781 299.09375 86.269531 300.5625 86.558594 302.015625 C 86.847656 303.46875 87.207031 304.90625 87.636719 306.328125 C 88.070312 307.746094 88.566406 309.140625 89.136719 310.511719 C 89.703125 311.882812 90.339844 313.222656 91.039062 314.53125 C 91.738281 315.835938 92.5 317.109375 93.324219 318.34375 C 94.148438 319.574219 95.03125 320.765625 95.972656 321.910156 C 96.914062 323.058594 97.910156 324.15625 98.960938 325.207031 C 100.011719 326.253906 101.109375 327.25 102.257812 328.191406 C 103.402344 329.132812 104.59375 330.015625 105.828125 330.835938 C 107.0625 331.660156 108.335938 332.421875 109.644531 333.121094 C 110.953125 333.820312 112.292969 334.457031 113.664062 335.023438 C 115.035156 335.589844 116.429688 336.089844 117.851562 336.519531 C 119.273438 336.953125 120.710938 337.3125 122.164062 337.601562 C 123.621094 337.890625 125.089844 338.105469 126.566406 338.253906 C 128.042969 338.398438 129.523438 338.472656 131.007812 338.472656 L 159.601562 338.472656 L 124.144531 395.621094 C 123.785156 396.28125 123.480469 396.964844 123.230469 397.671875 C 122.980469 398.378906 122.785156 399.097656 122.648438 399.835938 C 122.511719 400.574219 122.429688 401.316406 122.410156 402.066406 C 122.390625 402.816406 122.429688 403.566406 122.527344 404.308594 C 122.625 405.054688 122.78125 405.785156 122.996094 406.503906 C 123.207031 407.222656 123.476562 407.921875 123.796875 408.597656 C 124.121094 409.277344 124.496094 409.925781 124.921875 410.542969 C 125.347656 411.160156 125.816406 411.742188 126.335938 412.285156 C 126.851562 412.828125 127.40625 413.332031 128.003906 413.785156 C 128.597656 414.242188 129.226562 414.652344 129.886719 415.007812 C 130.546875 415.367188 131.230469 415.671875 131.9375 415.921875 C 132.644531 416.171875 133.371094 416.363281 134.109375 416.5 C 134.847656 416.636719 135.589844 416.714844 136.339844 416.730469 C 137.089844 416.75 137.839844 416.710938 138.582031 416.613281 C 139.328125 416.515625 140.058594 416.359375 140.777344 416.144531 C 141.5 415.929688 142.195312 415.660156 142.875 415.335938 L 287.128906 338.472656 L 469.273438 338.472656 C 470.757812 338.472656 472.238281 338.398438 473.714844 338.253906 C 475.191406 338.105469 476.65625 337.890625 478.113281 337.601562 C 479.570312 337.3125 481.007812 336.953125 482.425781 336.519531 C 483.847656 336.089844 485.242188 335.589844 486.613281 335.023438 C 487.988281 334.457031 489.328125 333.820312 490.636719 333.121094 C 491.945312 332.421875 493.214844 331.660156 494.449219 330.835938 C 495.683594 330.015625 496.875 329.132812 498.023438 328.191406 C 499.171875 327.25 500.269531 326.253906 501.320312 325.207031 C 502.367188 324.15625 503.363281 323.058594 504.304688 321.910156 C 505.246094 320.765625 506.128906 319.574219 506.953125 318.34375 C 507.777344 317.109375 508.542969 315.835938 509.242188 314.53125 C 509.941406 313.222656 510.574219 311.882812 511.144531 310.511719 C 511.710938 309.140625 512.210938 307.746094 512.640625 306.328125 C 513.070312 304.90625 513.433594 303.46875 513.722656 302.015625 C 514.011719 300.5625 514.230469 299.09375 514.375 297.617188 C 514.519531 296.144531 514.59375 294.664062 514.59375 293.179688 L 514.59375 85.726562 C 514.601562 84.234375 514.539062 82.75 514.402344 81.265625 C 514.261719 79.785156 514.054688 78.3125 513.769531 76.847656 C 513.488281 75.386719 513.132812 73.941406 512.707031 72.515625 C 512.285156 71.085938 511.789062 69.683594 511.226562 68.304688 C 510.660156 66.925781 510.03125 65.578125 509.335938 64.261719 C 508.636719 62.945312 507.878906 61.667969 507.054688 60.425781 C 506.230469 59.183594 505.347656 57.984375 504.40625 56.832031 C 503.464844 55.675781 502.46875 54.570312 501.417969 53.515625 C 500.371094 52.457031 499.269531 51.457031 498.121094 50.507812 C 496.96875 49.558594 495.777344 48.671875 494.539062 47.839844 C 493.304688 47.011719 492.027344 46.242188 490.714844 45.539062 C 489.402344 44.832031 488.058594 44.195312 486.679688 43.621094 C 485.304688 43.050781 483.90625 42.546875 482.480469 42.113281 C 481.054688 41.679688 479.609375 41.316406 478.148438 41.023438 C 476.6875 40.734375 475.214844 40.515625 473.730469 40.367188 C 472.25 40.222656 470.761719 40.148438 469.273438 40.148438 Z M 486 293.179688 C 486 293.726562 485.972656 294.273438 485.917969 294.816406 C 485.863281 295.363281 485.785156 295.902344 485.675781 296.441406 C 485.570312 296.976562 485.4375 297.507812 485.277344 298.03125 C 485.121094 298.554688 484.933594 299.070312 484.726562 299.578125 C 484.515625 300.082031 484.28125 300.578125 484.023438 301.058594 C 483.765625 301.542969 483.484375 302.011719 483.179688 302.464844 C 482.875 302.921875 482.550781 303.359375 482.203125 303.785156 C 481.855469 304.207031 481.488281 304.613281 481.097656 305 C 480.710938 305.386719 480.308594 305.753906 479.882812 306.101562 C 479.460938 306.449219 479.019531 306.773438 478.566406 307.078125 C 478.109375 307.382812 477.640625 307.664062 477.15625 307.921875 C 476.671875 308.179688 476.179688 308.414062 475.671875 308.625 C 475.167969 308.832031 474.652344 309.015625 474.128906 309.175781 C 473.601562 309.335938 473.070312 309.46875 472.535156 309.574219 C 471.996094 309.679688 471.457031 309.761719 470.910156 309.816406 C 470.367188 309.867188 469.820312 309.894531 469.273438 309.894531 L 283.414062 309.894531 C 281.03125 309.90625 278.789062 310.480469 276.691406 311.609375 L 176.613281 365.046875 L 197.34375 331.753906 C 197.675781 331.226562 197.972656 330.679688 198.230469 330.113281 C 198.492188 329.542969 198.710938 328.960938 198.894531 328.367188 C 199.078125 327.769531 199.222656 327.164062 199.324219 326.550781 C 199.429688 325.933594 199.492188 325.316406 199.515625 324.691406 C 199.539062 324.066406 199.519531 323.445312 199.460938 322.824219 C 199.402344 322.203125 199.300781 321.589844 199.164062 320.980469 C 199.023438 320.375 198.84375 319.777344 198.628906 319.191406 C 198.410156 318.609375 198.15625 318.039062 197.863281 317.488281 C 197.570312 316.9375 197.242188 316.40625 196.882812 315.898438 C 196.519531 315.390625 196.128906 314.90625 195.703125 314.449219 C 195.277344 313.992188 194.824219 313.566406 194.34375 313.167969 C 193.863281 312.769531 193.359375 312.40625 192.832031 312.074219 C 192.300781 311.742188 191.753906 311.445312 191.1875 311.1875 C 190.621094 310.925781 190.039062 310.703125 189.441406 310.519531 C 188.84375 310.335938 188.238281 310.191406 187.625 310.085938 C 187.007812 309.984375 186.386719 309.917969 185.765625 309.894531 L 131.007812 309.894531 C 130.460938 309.894531 129.914062 309.867188 129.367188 309.816406 C 128.824219 309.761719 128.28125 309.679688 127.746094 309.574219 C 127.207031 309.46875 126.675781 309.335938 126.152344 309.175781 C 125.628906 309.015625 125.113281 308.832031 124.605469 308.625 C 124.101562 308.414062 123.605469 308.179688 123.121094 307.921875 C 122.640625 307.664062 122.167969 307.382812 121.714844 307.078125 C 121.257812 306.773438 120.820312 306.449219 120.394531 306.101562 C 119.972656 305.753906 119.566406 305.386719 119.179688 305 C 118.792969 304.613281 118.425781 304.207031 118.078125 303.785156 C 117.730469 303.359375 117.402344 302.921875 117.097656 302.464844 C 116.792969 302.011719 116.511719 301.542969 116.253906 301.058594 C 115.996094 300.578125 115.761719 300.082031 115.554688 299.578125 C 115.34375 299.070312 115.160156 298.554688 115 298.03125 C 114.839844 297.507812 114.707031 296.976562 114.601562 296.441406 C 114.496094 295.902344 114.414062 295.363281 114.359375 294.816406 C 114.308594 294.273438 114.28125 293.726562 114.28125 293.179688 L 114.28125 85.726562 C 114.269531 85.171875 114.289062 84.617188 114.335938 84.066406 C 114.378906 83.515625 114.453125 82.96875 114.550781 82.421875 C 114.652344 81.878906 114.777344 81.339844 114.933594 80.808594 C 115.085938 80.277344 115.265625 79.753906 115.46875 79.238281 C 115.675781 78.726562 115.90625 78.222656 116.160156 77.730469 C 116.417969 77.242188 116.695312 76.765625 117 76.300781 C 117.300781 75.835938 117.625 75.390625 117.972656 74.957031 C 118.320312 74.527344 118.6875 74.113281 119.078125 73.71875 C 119.464844 73.324219 119.871094 72.949219 120.296875 72.597656 C 120.722656 72.242188 121.164062 71.910156 121.625 71.597656 C 122.082031 71.289062 122.554688 71 123.042969 70.738281 C 123.53125 70.476562 124.027344 70.234375 124.539062 70.023438 C 125.050781 69.808594 125.570312 69.621094 126.101562 69.457031 C 126.628906 69.296875 127.164062 69.160156 127.707031 69.050781 C 128.25 68.941406 128.796875 68.859375 129.351562 68.804688 C 129.902344 68.75 130.453125 68.722656 131.007812 68.722656 L 469.273438 68.722656 C 469.824219 68.722656 470.378906 68.75 470.929688 68.804688 C 471.480469 68.859375 472.027344 68.941406 472.570312 69.050781 C 473.113281 69.160156 473.648438 69.296875 474.179688 69.457031 C 474.707031 69.621094 475.230469 69.808594 475.738281 70.023438 C 476.25 70.234375 476.75 70.476562 477.238281 70.738281 C 477.722656 71 478.195312 71.289062 478.65625 71.597656 C 479.113281 71.910156 479.554688 72.242188 479.980469 72.597656 C 480.40625 72.949219 480.8125 73.324219 481.203125 73.71875 C 481.589844 74.113281 481.957031 74.527344 482.304688 74.957031 C 482.652344 75.390625 482.976562 75.835938 483.28125 76.300781 C 483.582031 76.765625 483.863281 77.242188 484.117188 77.730469 C 484.371094 78.222656 484.601562 78.726562 484.808594 79.238281 C 485.015625 79.753906 485.195312 80.277344 485.347656 80.808594 C 485.5 81.339844 485.625 81.878906 485.726562 82.421875 C 485.828125 82.96875 485.898438 83.515625 485.945312 84.066406 C 485.992188 84.617188 486.007812 85.171875 486 85.726562 Z M 486 293.179688 " fill-opacity="1" fill-rule="nonzero"/></svg>