<svg xmlns="http://www.w3.org/2000/svg" xmlns:xlink="http://www.w3.org/1999/xlink" width="800" zoomAndPan="magnify" viewBox="0 0 600 449.999984" height="600" preserveAspectRatio="xMidYMid meet" version="1.0"><path fill="#000000" d="M 320.765625 34.910156 L 242.0625 113.625 C 265.5 107.097656 290.554688 106.660156 314.332031 113.015625 C 317.554688 113.894531 320.648438 115.105469 323.800781 116.191406 L 362.90625 77.074219 C 386.144531 53.777344 423.839844 53.859375 447.144531 77.074219 C 470.382812 100.429688 470.367188 138.03125 447.125 161.328125 L 393.953125 214.539062 L 362.90625 245.582031 C 355.242188 253.246094 345.953125 258.148438 336.164062 260.761719 C 316.308594 266.121094 294.304688 261.234375 278.691406 245.609375 C 268.15625 235.097656 262.621094 221.648438 261.679688 207.925781 C 257.074219 209.933594 252.839844 212.421875 249.394531 215.851562 L 212.535156 252.726562 C 218.292969 265.390625 226.117188 277.347656 236.554688 287.761719 C 251.890625 303.128906 270.429688 313.308594 290.007812 318.523438 C 320.515625 326.65625 353.574219 322.457031 381.398438 305.941406 C 389.816406 300.957031 397.808594 294.960938 405.042969 287.734375 L 489.28125 203.464844 C 535.859375 156.890625 535.761719 81.433594 489.34375 34.917969 C 442.710938 -11.605469 367.300781 -11.667969 320.765625 34.910156 Z M 320.765625 34.910156 " fill-opacity="1" fill-rule="nonzero"/><path fill="#000000" d="M 357.304688 335.300781 C 330.582031 342.691406 302.128906 341.773438 275.839844 332.707031 L 236.824219 371.765625 C 213.539062 394.96875 175.84375 394.96875 152.566406 371.738281 C 129.316406 348.40625 129.363281 310.777344 152.539062 287.449219 L 236.8125 203.15625 C 244.503906 195.519531 253.746094 190.636719 263.5 188.03125 C 283.359375 182.710938 305.359375 187.59375 321.035156 203.183594 C 331.570312 213.804688 337.105469 227.332031 338.003906 241.136719 C 342.410156 239.128906 346.589844 236.460938 350.207031 232.835938 L 387.113281 195.941406 C 381.390625 183.3125 373.582031 171.398438 363.210938 160.996094 C 347.820312 145.652344 329.300781 135.464844 309.738281 130.25 C 279.195312 122.097656 246.171875 126.320312 218.320312 142.816406 C 209.914062 147.78125 201.925781 153.761719 194.675781 160.984375 L 110.417969 245.277344 C 63.882812 291.855469 63.859375 367.339844 110.390625 413.875 C 156.945312 460.433594 232.355469 460.433594 278.933594 413.875 Z M 357.304688 335.300781 " fill-opacity="1" fill-rule="nonzero"/></svg>