<svg xmlns="http://www.w3.org/2000/svg" xmlns:xlink="http://www.w3.org/1999/xlink" width="800" zoomAndPan="magnify" viewBox="0 0 600 449.999984" height="600" preserveAspectRatio="xMidYMid meet" version="1.0"><path fill="#00A300" d="M 396.207031 181.066406 L 328.519531 181.066406 L 328.519531 93.890625 C 328.519531 80.589844 317.6875 69.765625 304.375 69.765625 L 262.742188 69.765625 C 250.21875 69.765625 239.667969 79.488281 238.71875 91.882812 C 235.382812 135.167969 201.144531 174.757812 191.210938 180.828125 C 183.992188 185.238281 179.683594 192.929688 179.683594 201.398438 L 179.683594 369.445312 C 179.683594 382.75 190.511719 393.574219 203.824219 393.574219 L 396.207031 393.574219 C 409.519531 393.574219 420.351562 382.75 420.351562 369.445312 L 420.351562 205.191406 C 420.351562 191.890625 409.519531 181.066406 396.207031 181.066406 Z M 209.910156 363.359375 L 209.910156 204.613281 C 227.183594 191.882812 262.101562 150.121094 268.285156 99.976562 L 298.289062 99.976562 L 298.289062 187.144531 C 298.289062 200.453125 309.121094 211.273438 322.433594 211.273438 L 390.121094 211.273438 L 390.121094 244.191406 L 336.652344 244.191406 C 328.304688 244.191406 321.539062 250.953125 321.539062 259.300781 C 321.539062 267.648438 328.304688 274.410156 336.652344 274.410156 L 390.121094 274.410156 L 390.121094 300.222656 L 356.242188 300.222656 C 347.894531 300.222656 341.128906 306.984375 341.128906 315.332031 C 341.128906 323.675781 347.894531 330.441406 356.242188 330.441406 L 390.121094 330.441406 L 390.121094 363.359375 Z M 209.910156 363.359375 " fill-opacity="1" fill-rule="nonzero"/></svg>